<svg width="1102" height="817" viewBox="0 0 1102 817" fill="none" xmlns="http://www.w3.org/2000/svg">
<path d="M682.286 363.359C682.301 363.352 682.308 363.352 682.322 363.359C682.158 363.432 682.136 363.439 682.286 363.359Z" fill="#323657"/>
<path opacity="0.18" d="M695.299 323.955H622.979V335.608H695.299V323.955Z" fill="url(#paint0_linear_28_43)"/>
<path opacity="0.18" d="M706.867 299.609H619.272V311.261H706.867V299.609Z" fill="url(#paint1_linear_28_43)"/>
<path d="M563.638 648.542C752.821 648.542 906.184 641.534 906.184 632.888C906.184 624.243 752.821 617.234 563.638 617.234C374.455 617.234 221.092 624.243 221.092 632.888C221.092 641.534 374.455 648.542 563.638 648.542Z" fill="#51578F"/>
<path d="M949.698 38.2979V439.086H168.647V38.2979C168.647 17.141 185.566 0 206.434 0H911.919C932.786 0 949.698 17.141 949.698 38.2979Z" fill="url(#paint2_linear_28_43)"/>
<path d="M611.249 22.3349H507.352C506.714 22.3349 506.196 21.8104 506.196 21.1639V14.4828C506.196 13.8362 506.714 13.3118 507.352 13.3118H611.249C611.887 13.3118 612.404 13.8362 612.404 14.4828V21.1639C612.404 21.8176 611.887 22.3349 611.249 22.3349Z" fill="url(#paint3_linear_28_43)"/>
<path d="M949.826 239.313H168.774V439.079H949.826V239.313Z" fill="url(#paint4_linear_28_43)"/>
<path d="M923.224 43.7004V390.953C923.224 395.716 919.418 399.581 914.711 399.581H203.634C201.855 399.581 200.203 399.028 198.835 398.08C196.602 396.521 195.128 393.913 195.128 390.953V43.7004C195.128 38.9374 198.934 35.0724 203.627 35.0724H914.704C917.667 35.0724 920.283 36.5954 921.8 38.9302C922.714 40.2952 923.224 41.9331 923.224 43.7004Z" fill="url(#paint5_linear_28_43)"/>
<path d="M188.309 484.769C189.316 485.724 190.358 486.637 191.421 487.528C190.351 486.651 189.316 485.724 188.309 484.769Z" fill="white"/>
<path d="M949.819 439.079C949.819 449.574 947.281 459.474 942.773 468.152C939.86 473.784 936.132 478.9 931.73 483.354C925.103 490.085 916.958 495.286 907.864 498.404C901.641 500.531 894.971 501.687 888.046 501.687H230.547C218.661 501.687 207.561 498.289 198.148 492.398C195.787 490.926 193.54 489.295 191.421 487.528C190.351 486.637 189.309 485.724 188.309 484.769C187.806 484.288 187.317 483.799 186.828 483.303C182.447 478.864 178.733 473.763 175.834 468.152C171.312 459.474 168.782 449.574 168.782 439.079H949.819V439.079Z" fill="url(#paint6_linear_28_43)"/>
<path d="M617.656 467.247V469.093C617.656 473.102 614.424 476.371 610.476 476.371H507.897C503.949 476.371 500.717 473.095 500.717 469.093V467.247C500.717 463.246 503.949 459.97 507.897 459.97H610.476C614.424 459.97 617.656 463.238 617.656 467.247Z" fill="url(#paint7_linear_28_43)"/>
<path d="M674.765 501.694H443.835V599.339H674.765V501.694Z" fill="url(#paint8_linear_28_43)"/>
<path d="M674.765 501.694H443.835V537.471H674.765V501.694Z" fill="url(#paint9_linear_28_43)"/>
<path d="M757.873 632.889H360.727V602.5C360.727 600.755 362.124 599.339 363.846 599.339H754.754C756.477 599.339 757.873 600.755 757.873 602.5V632.889V632.889Z" fill="url(#paint10_linear_28_43)"/>
<path opacity="0.5" d="M617.656 468.167V469.086C617.656 473.095 614.424 476.364 610.476 476.364H507.897C503.949 476.364 500.717 473.088 500.717 469.086V468.167H617.656Z" fill="#171721"/>
<path opacity="0.1" d="M559.173 383.633C648.665 383.633 721.213 310.103 721.213 219.399C721.213 128.696 648.665 55.166 559.173 55.166C469.68 55.166 397.132 128.696 397.132 219.399C397.132 310.103 469.68 383.633 559.173 383.633Z" fill="url(#paint11_linear_28_43)"/>
<path d="M447.436 174.995V287.116C520.153 309.106 592.728 309.185 665.175 287.116V174.995H447.436Z" fill="url(#paint12_linear_28_43)"/>
<path d="M560.966 205.441L357.474 162.258L560.966 106.611L755.74 162.258L560.966 205.441Z" fill="url(#paint13_linear_28_43)"/>
<path d="M677.104 309.738C675.914 309.738 674.942 308.754 674.942 307.547V181.468L555.862 156.202C554.693 155.95 553.949 154.794 554.19 153.608C554.438 152.423 555.579 151.669 556.748 151.913L677.551 177.545C678.55 177.761 679.266 178.652 679.266 179.686V307.547C679.266 308.754 678.302 309.738 677.104 309.738Z" fill="#FDB900"/>
<path d="M576.297 154.054C576.297 157.818 567.806 160.871 557.323 160.871C546.846 160.871 538.348 157.818 538.348 154.054C538.348 150.289 546.839 147.236 557.323 147.236C567.806 147.243 576.297 150.289 576.297 154.054Z" fill="url(#paint14_linear_28_43)"/>
<path d="M692.996 350.823C691.713 351.427 690.43 351.966 689.147 352.418C688.268 352.742 687.389 353.015 686.51 353.259C684.426 353.848 682.357 354.243 680.273 354.451C679.394 354.538 678.508 354.588 677.629 354.609C674.9 354.66 672.164 354.394 669.428 353.79C668.485 353.589 667.55 353.345 666.614 353.05C664.693 352.476 662.765 351.729 660.844 350.823C660.015 350.436 659.59 349.48 659.88 348.596L672.44 309.796C673.858 305.406 679.982 305.406 681.4 309.796L693.967 348.596C694.25 349.48 693.825 350.436 692.996 350.823Z" fill="#FDB900"/>
<path d="M669.428 353.79C668.485 353.589 667.549 353.345 666.614 353.05L668.811 344.027L669.428 353.79Z" fill="#FD9801"/>
<path d="M689.147 352.418C688.268 352.741 687.389 353.014 686.51 353.259L684.299 333.503L689.147 352.418Z" fill="#FD9801"/>
<path d="M680.273 354.444C679.394 354.53 678.508 354.581 677.629 354.602L678.238 342.677L680.273 354.444Z" fill="#FD9801"/>
<path d="M676.92 316.161C680.768 316.161 683.888 312.999 683.888 309.099C683.888 305.199 680.768 302.037 676.92 302.037C673.072 302.037 669.952 305.199 669.952 309.099C669.952 312.999 673.072 316.161 676.92 316.161Z" fill="#FD9801"/>
<path d="M34.278 733.501L1.11991 763.925C-1.19081 766.044 0.290607 769.931 3.40228 769.931H223.885C235.14 769.931 245.865 765.038 253.321 756.489L292.618 711.46C300.45 702.48 294.163 688.335 282.34 688.335H83.3064C82.4416 688.335 81.6123 688.665 80.9815 689.261L34.278 733.501Z" fill="#51578F"/>
<path d="M242.781 721.324C241.732 724.793 240.386 727.308 240.386 727.308C238.848 706.898 215.499 709.025 215.499 709.025H19.1592V749.291H232.964L245.05 725.742L242.781 721.324Z" fill="white"/>
<path d="M240.386 727.308C240.386 727.308 241.732 724.793 242.781 721.323L232.964 702.185H19.1592V709.024H215.499C215.499 709.032 238.848 706.898 240.386 727.308Z" fill="#D0D0D0"/>
<path d="M272.495 650.267L251.692 669.807L242.902 678.055L217.208 702.186H19.1596C16.622 702.186 14.5594 700.088 14.5594 697.523C14.5594 695.462 15.8919 693.702 17.7349 693.091L45.5344 678.062L66.7207 666.596L99.4748 648.888H266.35C266.343 648.873 268.916 649.182 272.495 650.267Z" fill="#0459BC"/>
<path d="M136.864 648.873L50.3256 702.185H28.0902L116.947 648.873H136.864Z" fill="#093F9D"/>
<path d="M19.1592 718.32H216.364C217.222 718.32 217.916 717.616 217.916 716.747C217.916 715.878 217.222 715.174 216.364 715.174H19.1592V718.32Z" fill="#D0D0D0"/>
<path d="M19.1592 729.204H216.364C217.222 729.204 217.916 728.5 217.916 727.631C217.916 726.762 217.222 726.058 216.364 726.058H19.1592V729.204Z" fill="#D0D0D0"/>
<path d="M19.1592 740.088H216.364C217.222 740.088 217.916 739.384 217.916 738.515C217.916 737.646 217.222 736.942 216.364 736.942H19.1592V740.088Z" fill="#D0D0D0"/>
<path d="M273.125 650.46C270.021 649.347 266.342 648.873 266.342 648.873L253.371 648.923L253.357 649.081L231.043 648.966L210.02 672.307L182.979 702.178H217.193C230.009 702.178 240.428 712.746 240.428 725.727C240.428 738.716 230.009 749.276 217.193 749.276H19.1591C16.6216 749.276 14.5519 751.381 14.5519 753.946C14.5519 756.518 16.6287 758.616 19.1591 758.616H217.2H217.711C217.874 758.616 218.03 758.608 218.186 758.587C227.733 758.292 236.26 753.802 242.023 746.877C253.194 735.196 289.577 696.474 292.795 684.462C298.799 662.091 282.808 653.528 273.125 650.46Z" fill="#093F9D"/>
<path d="M242.781 654.835C241.732 658.305 240.386 660.82 240.386 660.82C238.848 640.41 215.499 642.536 215.499 642.536H19.1592V682.796H232.964L245.05 659.246L242.781 654.835Z" fill="white"/>
<path d="M240.386 660.82C240.386 660.82 241.732 658.306 242.781 654.836L232.964 635.698H19.1592V642.537H215.499C215.499 642.544 238.848 640.41 240.386 660.82Z" fill="#D0D0D0"/>
<path d="M272.497 583.782L251.693 603.322L242.904 611.57L217.209 635.701H19.161C16.6234 635.701 14.5608 633.603 14.5608 631.038C14.5608 628.977 15.8934 627.216 17.7363 626.606L45.5358 611.577L66.7221 600.111L99.4762 582.403H266.351C266.344 582.388 268.917 582.697 272.497 583.782Z" fill="#51578F"/>
<path d="M136.864 582.385L50.3256 635.698H28.0902L116.947 582.385H136.864Z" fill="#51578F"/>
<path d="M19.1592 651.826H216.364C217.222 651.826 217.916 651.121 217.916 650.252C217.916 649.383 217.222 648.679 216.364 648.679H19.1592V651.826Z" fill="#D0D0D0"/>
<path d="M19.1592 662.716H216.364C217.222 662.716 217.916 662.012 217.916 661.143C217.916 660.274 217.222 659.57 216.364 659.57H19.1592V662.716Z" fill="#D0D0D0"/>
<path d="M19.1592 673.6H216.364C217.222 673.6 217.916 672.896 217.916 672.027C217.916 671.157 217.222 670.453 216.364 670.453H19.1592V673.6Z" fill="#D0D0D0"/>
<path d="M273.125 583.973C270.021 582.866 266.342 582.385 266.342 582.385L253.371 582.442L253.357 582.601L231.043 582.486L210.02 605.826L182.979 635.698H217.193C230.009 635.698 240.428 646.265 240.428 659.247C240.428 672.228 230.009 682.796 217.193 682.796H19.1591C16.6216 682.796 14.5519 684.901 14.5519 687.465C14.5519 690.037 16.6287 692.135 19.1591 692.135H217.2H217.711C217.874 692.135 218.03 692.128 218.186 692.106C227.733 691.812 236.26 687.322 242.023 680.396C253.194 668.715 289.577 629.993 292.795 617.982C298.799 595.596 282.808 587.04 273.125 583.973Z" fill="#51578F"/>
<path d="M242.781 587.91C241.732 591.379 240.386 593.894 240.386 593.894C238.848 573.484 215.499 575.611 215.499 575.611H19.1592V615.87H232.964L245.05 592.321L242.781 587.91Z" fill="white"/>
<path d="M240.386 593.894C240.386 593.894 241.732 591.379 242.781 587.909L232.964 568.771H19.1592V575.61H215.499C215.499 575.61 238.848 573.484 240.386 593.894Z" fill="#D0D0D0"/>
<path d="M272.497 516.849L251.693 536.389L242.904 544.636L217.209 568.767H19.161C16.6234 568.767 14.5608 566.67 14.5608 564.105C14.5608 562.043 15.8934 560.283 17.7363 559.672L45.5358 544.644L66.7221 533.178L99.4762 515.469H266.351C266.344 515.462 268.917 515.764 272.497 516.849Z" fill="#FDB900"/>
<path d="M136.864 515.459L50.3256 568.764H28.0902L116.947 515.459H136.864Z" fill="#FD9801"/>
<path d="M19.1592 584.899H216.364C217.222 584.899 217.916 584.195 217.916 583.326C217.916 582.456 217.222 581.752 216.364 581.752H19.1592V584.899Z" fill="#D0D0D0"/>
<path d="M19.1592 595.783H216.364C217.222 595.783 217.916 595.079 217.916 594.21C217.916 593.34 217.222 592.636 216.364 592.636H19.1592V595.783Z" fill="#D0D0D0"/>
<path d="M19.1592 606.674H216.364C217.222 606.674 217.916 605.97 217.916 605.1C217.916 604.231 217.222 603.527 216.364 603.527H19.1592V606.674Z" fill="#D0D0D0"/>
<path d="M273.125 517.039C270.021 515.926 266.342 515.452 266.342 515.452L253.371 515.509L253.357 515.667L231.043 515.552L210.02 538.893L182.979 568.764H217.193C230.009 568.764 240.428 579.332 240.428 592.313C240.428 605.302 230.009 615.862 217.193 615.862H19.1591C16.6216 615.862 14.5519 617.967 14.5519 620.532C14.5519 623.104 16.6287 625.202 19.1591 625.202H217.2H217.711C217.874 625.202 218.03 625.194 218.186 625.173C227.733 624.878 236.26 620.388 242.023 613.463C253.194 601.782 289.577 563.06 292.795 551.048C298.799 528.67 282.808 520.114 273.125 517.039Z" fill="#FD9801"/>
<path d="M929.242 654.462C929.242 663.478 900.23 670.791 864.449 670.791C828.662 670.791 799.657 663.478 799.657 654.462C799.657 645.446 828.669 638.133 864.449 638.133C900.23 638.133 929.242 645.439 929.242 654.462Z" fill="#51578F"/>
<path d="M799.65 504.647C799.65 504.647 833.978 500.818 860.267 500.818C886.55 500.818 929.242 504.647 929.242 504.647C929.242 504.647 901.4 518.885 864.449 518.885C827.492 518.885 799.65 504.647 799.65 504.647Z" fill="#093F9D"/>
<path d="M835.037 463.082L815.01 464.584L826.183 617.606L846.209 616.104L835.037 463.082Z" fill="#FDB900"/>
<path d="M834.998 463.102L814.974 464.603L820.51 449.632L823.381 441.88L827.35 449.122L834.998 463.102Z" fill="#FAB08D"/>
<path d="M846.162 616.114L826.138 617.615L825.33 606.502L845.354 605L846.162 616.114Z" fill="url(#paint15_linear_28_43)"/>
<path d="M845.964 625.044L827.634 626.416C827.166 626.452 826.755 626.092 826.72 625.618L826.138 617.615L846.162 616.114L846.743 624.117C846.786 624.591 846.432 625.008 845.964 625.044Z" fill="#FD3F2C"/>
<path d="M827.35 449.122L820.51 449.632L823.381 441.88L827.35 449.122Z" fill="url(#paint16_linear_28_43)"/>
<path d="M844.818 597.004L824.792 598.506L825.374 606.48L845.4 604.978L844.818 597.004Z" fill="#FD9801"/>
<path d="M820.503 471.766L828.775 585.079C828.839 585.934 829.576 586.58 830.419 586.516C831.263 586.451 831.901 585.704 831.837 584.849L823.572 471.536C823.508 470.681 822.771 470.035 821.928 470.099C821.077 470.164 820.439 470.911 820.503 471.766Z" fill="#FD9801"/>
<path d="M828.336 471.169L836.601 584.483C836.664 585.338 837.401 585.984 838.245 585.919C839.088 585.855 839.726 585.108 839.663 584.253L831.398 470.94C831.334 470.085 830.597 469.438 829.753 469.503C828.91 469.575 828.272 470.315 828.336 471.169Z" fill="#FD9801"/>
<path d="M848.593 605.561L868.621 607.039L879.612 454.002L859.584 452.525L848.593 605.561Z" fill="#FDB900"/>
<path d="M848.643 605.561L868.667 607.04L861.033 621.028L857.078 628.269L854.2 620.525L848.643 605.561Z" fill="#FAB08D"/>
<path d="M859.636 452.534L879.66 454.014L878.867 465.127L858.835 463.655L859.636 452.534Z" fill="url(#paint17_linear_28_43)"/>
<path d="M861.118 443.734L879.448 445.084C879.916 445.12 880.27 445.53 880.235 446.004L879.66 454.007L859.636 452.527L860.21 444.524C860.246 444.057 860.65 443.698 861.118 443.734Z" fill="#FD3F2C"/>
<path d="M854.2 620.525L861.033 621.028L857.078 628.269L854.2 620.525Z" fill="url(#paint18_linear_28_43)"/>
<path d="M858.844 463.611L858.271 471.586L878.299 473.064L878.872 465.089L858.844 463.611Z" fill="#FD9801"/>
<path d="M864.229 599.131L872.374 485.803C872.438 484.949 871.8 484.201 870.956 484.137C870.113 484.072 869.375 484.719 869.312 485.574L861.167 598.901C861.104 599.756 861.742 600.503 862.585 600.568C863.436 600.632 864.173 599.993 864.229 599.131Z" fill="#FD9801"/>
<path d="M856.397 598.563L864.542 485.236C864.605 484.381 863.967 483.634 863.124 483.576C862.28 483.512 861.543 484.158 861.479 485.013L853.335 598.341C853.271 599.195 853.909 599.943 854.753 600.007C855.603 600.065 856.333 599.418 856.397 598.563Z" fill="#FD9801"/>
<path d="M876.728 610.948L896.347 615.287L928.623 465.38L909.004 461.041L876.728 610.948Z" fill="#FDB900"/>
<path d="M876.704 610.963L896.325 615.302L886.812 628.054L881.879 634.656L880.114 626.574L876.704 610.963Z" fill="#FAB08D"/>
<path d="M908.977 461.062L928.597 465.394L926.251 476.292L906.631 471.953L908.977 461.062Z" fill="url(#paint19_linear_28_43)"/>
<path d="M911.677 452.563L929.632 456.536C930.092 456.636 930.383 457.096 930.284 457.563L928.597 465.401L908.977 461.062L910.664 453.224C910.763 452.757 911.217 452.463 911.677 452.563Z" fill="#FD3F2C"/>
<path d="M880.114 626.574L886.812 628.054L881.879 634.656L880.114 626.574Z" fill="url(#paint20_linear_28_43)"/>
<path d="M906.654 471.977L904.973 479.789L924.591 484.128L926.273 476.316L906.654 471.977Z" fill="#FD9801"/>
<path d="M893.035 606.839L916.937 495.825C917.121 494.984 916.589 494.158 915.767 493.971C914.938 493.792 914.123 494.323 913.938 495.157L890.037 606.171C889.86 607.012 890.384 607.838 891.207 608.025C892.036 608.211 892.858 607.68 893.035 606.839Z" fill="#FD9801"/>
<path d="M885.359 605.151L909.26 494.137C909.438 493.296 908.92 492.47 908.091 492.291C907.261 492.104 906.446 492.635 906.262 493.476L882.361 604.49C882.184 605.331 882.708 606.157 883.53 606.344C884.36 606.516 885.182 605.985 885.359 605.151Z" fill="#FD9801"/>
<path d="M929.242 504.647C929.242 504.647 929.242 504.654 929.234 504.669L910.288 651.2C879.724 667.12 849.167 667.12 818.604 651.2L816.463 634.663V634.656L799.65 504.647C842.852 520.861 886.04 520.861 929.242 504.647Z" fill="#0459BC"/>
<path d="M929.234 504.668L910.288 651.201C879.724 667.12 849.167 667.12 818.603 651.201L816.463 634.663V634.656C816.463 634.656 849.344 654.017 876.704 638.018C906.609 620.525 928.866 506.486 929.234 504.668Z" fill="#093F9D"/>
<path d="M865.874 705.002C865.874 713.112 918.73 719.693 983.941 719.693C1049.14 719.693 1102 713.12 1102 705.002C1102 696.891 1049.14 690.311 983.941 690.311C918.73 690.311 865.874 696.891 865.874 705.002Z" fill="#51578F"/>
<path d="M958.53 687.789H939.626L927.59 540.503L941.114 405.408L992.191 400.558L961.563 554.555C970.218 590.144 962.988 635.683 958.53 687.789Z" fill="url(#paint21_linear_28_43)"/>
<path d="M959.075 686.632C959.075 686.632 960.217 688.241 960.217 691.575C960.217 694.901 959.898 706.388 959.898 706.388H904.575C904.575 706.388 904.37 697.66 911.38 692.997C918.39 688.335 929.157 692.904 939.449 685.576C939.449 685.576 942.206 688.127 959.075 686.632Z" fill="white"/>
<path d="M1062.04 686.676C1058.38 646.754 1041.21 566.415 1030.26 549.088L1030.15 398.461L980.241 410.451L995.154 549.404L1042.9 685.569C1048.6 688.802 1055.21 688.191 1062.04 686.676Z" fill="url(#paint22_linear_28_43)"/>
<path d="M1062.04 686.675C1062.04 686.675 1063.3 688.371 1063.3 691.704C1063.3 695.03 1063.3 706.388 1063.3 706.388H1008.03C1008.03 706.388 1007.82 697.66 1014.83 692.997C1021.84 688.335 1032.61 692.904 1042.9 685.576C1042.91 685.576 1045.17 688.17 1062.04 686.675Z" fill="white"/>
<path d="M938.052 406.047C940.455 410.163 948.67 413.324 955.744 415.077C956.233 415.199 956.715 415.314 957.183 415.422C958.416 415.702 959.593 415.932 960.677 416.126C972.281 418.116 983.962 419.007 995.714 419.014C997.89 419.014 1000.2 418.863 1002.57 418.562C1003.05 418.504 1003.53 418.439 1004.01 418.368C1016.24 416.572 1029.84 411.205 1036.66 404.294L1026.81 359.179L1045.95 247.072L1020.57 238.207L1019.21 237.733L1013.51 235.743L1008.99 234.163L982.119 237.755L977.746 238.337L976.2 238.545L956.977 241.117L938.052 406.047Z" fill="#FDB900"/>
<path d="M958.133 166.956C958.133 166.956 947.6 163.666 948.209 153.666C948.812 143.673 955.857 137.344 970.551 142.444C985.245 147.545 1011.39 141.805 1020.47 153.666C1029.56 165.519 1018.12 203.767 1018.12 203.767L958.133 166.956Z" fill="#131E30"/>
<path d="M985.748 219.32L986.988 234.687L987.555 241.727C996.465 248.056 1010.46 238.653 1010.46 238.653L1011.08 214.514C1006.96 211.856 996.912 215.721 990.688 217.647C987.761 218.559 985.748 219.32 985.748 219.32Z" fill="#FAB08D"/>
<path d="M985.748 219.32L986.988 234.687C997.195 232.015 1005.43 217.359 1005.43 217.359L990.688 217.646C987.761 218.559 985.748 219.32 985.748 219.32Z" fill="#F28368"/>
<path d="M956.977 180.247C956.998 180.771 957.02 181.31 957.048 181.849C957.573 191.511 959.501 203.221 961.351 212.747C963.314 222.848 973.124 229.321 983.033 227.036C990.518 225.312 999.088 223.056 1006.08 220.463C1008.42 219.594 1010.51 218.207 1012.2 216.433C1013.5 215.082 1014.56 213.509 1015.33 211.763C1017.04 207.934 1018.23 203.875 1019.05 199.723C1019.71 196.361 1020.13 192.934 1020.37 189.493C1020.39 189.277 1020.42 189.076 1020.47 188.875C1020.42 187.014 1020.36 185.153 1020.28 183.329V183.322C1019.84 172.129 1019.05 162.459 1019.05 162.459C1004.2 144.679 964.214 152.754 958.423 166.181C958.317 166.425 958.218 166.691 958.125 166.956C957.055 170.067 956.757 174.78 956.977 180.247Z" fill="#FAB08D"/>
<path d="M1012.21 216.425C1013.5 215.074 1014.57 213.501 1015.34 211.755C1017.05 207.926 1018.23 203.867 1019.05 199.715C1017.48 199.456 1015.41 199.607 1012.85 200.807C1012.84 200.814 1004.57 213.516 1012.21 216.425Z" fill="#131E30"/>
<path d="M958.133 166.956C970.367 174.931 990.681 163.652 990.681 163.652C992.021 169.219 1000.06 168.896 1002.21 173.594C1003.4 176.195 1003.93 180.038 1004.16 182.955C1004.35 185.254 1006.27 187.007 1008.54 186.949C1013.76 179.255 1020.28 183.329 1020.28 183.329V183.322C1019.84 172.129 1019.05 162.459 1019.05 162.459C1004.2 144.679 964.215 152.754 958.424 166.181C958.324 166.432 958.225 166.691 958.133 166.956Z" fill="#131E30"/>
<path d="M1008.55 186.949C1008.55 186.949 1014.79 178.889 1020.29 183.329C1026.34 188.228 1022.22 205.441 1010.15 205.355L1008.55 186.949Z" fill="#FAB08D"/>
<path d="M956.985 241.117C956.985 241.117 920.524 315.083 912.805 337.217C912.805 337.217 872.332 338.259 855.278 337.217L859.849 357.505C859.849 357.505 901.889 361.98 915.448 363.015C927.845 363.963 947.338 325.256 947.338 325.256L956.985 241.117Z" fill="#FD9801"/>
<path d="M929.837 360.838C970.19 376.305 1014.02 357.332 1014.02 357.332C1014.02 357.332 1045.22 325.708 1052.53 291.491C1059.84 257.266 1045.95 247.065 1045.95 247.065C1021.23 311.261 1001.09 337.217 1001.09 337.217C1001.09 337.217 967.163 343.007 951.088 345.227C942.348 346.441 929.837 342.447 929.837 342.447C928.236 351.714 929.837 360.838 929.837 360.838Z" fill="#FD9801"/>
<path d="M929.837 342.454C929.837 342.454 923.614 334.811 920.559 334.811C917.504 334.811 915.675 338.633 915.675 338.633C915.675 338.633 907.453 335.737 903.795 339.674C900.138 343.611 898.713 369.236 929.844 360.838V342.454H929.837Z" fill="#FAB08D"/>
<path d="M844.121 309.113L876.648 389.89C877.804 392.764 880.561 394.632 883.616 394.632H932.24C937.591 394.632 941.235 389.143 939.208 384.129L906.687 303.352C905.532 300.478 902.775 298.61 899.72 298.61H851.096C845.744 298.603 842.101 304.092 844.121 309.113Z" fill="white"/>
<path d="M844.121 309.113L876.648 389.89C877.804 392.764 880.561 394.632 883.616 394.632H923.182C928.533 394.632 932.176 389.143 930.149 384.129L897.629 303.352C896.474 300.478 893.716 298.61 890.661 298.61H851.096C845.744 298.603 842.101 304.092 844.121 309.113Z" fill="url(#paint23_linear_28_43)"/>
<path opacity="0.2" d="M876.131 349.3C877.811 353.74 882.723 357.332 887.096 357.332C891.477 357.332 893.66 353.733 891.98 349.3C890.3 344.861 885.388 341.269 881.014 341.269C876.641 341.269 874.451 344.868 876.131 349.3Z" fill="#011B2E"/>
<path d="M852.393 340.701C852.393 340.701 848.75 332.433 852.613 330.213L855.902 338.388C855.902 338.388 863.053 331.844 868.022 335.033C872.991 338.223 880.986 355.63 878.484 360.292C875.982 364.962 862.111 369.071 857.17 363.252C852.23 357.433 850.564 346.01 852.393 340.701Z" fill="#FAB08D"/>
<path d="M831.894 719.06C842.739 700.023 875.635 698.694 905.362 716.093C935.097 733.493 950.407 763.027 939.562 782.064C928.717 801.102 895.829 802.431 866.094 785.031C836.36 767.631 821.049 738.098 831.894 719.06Z" fill="#51578F"/>
<path d="M938.931 764.808H938.91C938.719 765.735 938.407 766.59 937.953 767.33C937.953 767.33 937.953 767.351 937.932 767.351C926.676 785.821 866.604 775.268 859.913 758.939C859.332 757.516 858.751 756.209 858.212 754.988C849.877 736.841 844.575 741.891 829.945 729.585C829.307 729.053 828.726 728.5 828.244 727.933C828.187 727.854 828.109 727.803 828.052 727.724C819.809 718.213 829.945 706.079 829.945 706.079C830.562 705.583 831.178 705.109 831.802 704.657C831.802 704.635 831.802 704.635 831.802 704.635C836.693 701.05 841.768 698.615 846.935 697.156C849.295 696.474 851.691 696.014 854.087 695.756C896.934 690.82 942.865 746.029 938.931 764.808Z" fill="white"/>
<path d="M937.939 767.351C926.683 785.821 866.612 775.268 859.92 758.939C859.339 757.516 858.758 756.209 858.219 754.988C849.827 736.913 844.135 742.401 829.952 729.585C829.336 729.032 828.768 728.486 828.251 727.933C828.194 727.854 828.116 727.803 828.06 727.724C819.816 718.213 829.952 706.079 829.952 706.079C830.569 705.583 831.185 705.109 831.809 704.656C830.611 708.169 829.47 716.101 838.968 723.809C841.194 725.634 843.746 726.977 846.368 728.155C848.445 729.068 852.627 732.279 860.076 742.811C872.006 759.65 870.383 761.798 896.849 769.14C922.707 776.353 937.301 767.732 937.939 767.351Z" fill="url(#paint24_linear_28_43)"/>
<path d="M873.182 710.526C857.858 697.638 846.942 697.164 846.942 697.164C849.302 696.481 851.698 696.021 854.094 695.763C866.314 699.951 873.033 710.016 873.182 710.526Z" fill="url(#paint25_linear_28_43)"/>
<path d="M230.306 817H867.774L783.596 681.574H314.485L230.306 817Z" fill="#51578F"/>
<path d="M251.714 775.225H847.788L789.736 681.574H309.759L251.714 775.225Z" fill="url(#paint26_linear_28_43)"/>
<path d="M251.707 796.438L847.78 796.438V775.231L251.707 775.231V796.438Z" fill="#A0A0A0"/>
<path d="M757.887 698.112H788.012L783.596 688.514H754.436L757.887 698.112Z" fill="white"/>
<path d="M753.989 698.112L750.183 688.514H721.015L723.864 698.112H753.989Z" fill="white"/>
<path d="M719.966 698.112L716.762 688.514H687.595L689.842 698.112H719.966Z" fill="white"/>
<path d="M685.837 698.112L683.235 688.514H654.068L655.713 698.112H685.837Z" fill="white"/>
<path d="M651.771 698.112L649.78 688.514H620.619L621.654 698.112H651.771Z" fill="white"/>
<path d="M617.713 698.112L616.331 688.514H587.163L587.596 698.112H617.713Z" fill="white"/>
<path d="M583.747 698.112L582.96 688.514H553.8L553.623 698.112H583.747Z" fill="white"/>
<path d="M549.986 698.112L549.809 688.514H520.649L519.862 698.112H549.986Z" fill="white"/>
<path d="M516.013 698.112L516.446 688.514H487.278L485.896 698.112H516.013Z" fill="white"/>
<path d="M481.955 698.112L482.99 688.514H453.829L451.838 698.112H481.955Z" fill="white"/>
<path d="M447.897 698.112L449.541 688.514H420.374L417.772 698.112H447.897Z" fill="white"/>
<path d="M413.767 698.112L416.007 688.514H386.847L383.643 698.112H413.767Z" fill="white"/>
<path d="M379.745 698.112L382.594 688.514H353.426L349.62 698.112H379.745Z" fill="white"/>
<path d="M345.722 698.112H315.597L320.013 688.514H349.174L345.722 698.112Z" fill="white"/>
<path d="M764.146 716.051H795.369L790.797 706.101H760.56L764.146 716.051Z" fill="white"/>
<path d="M760.099 716.051L756.151 706.101H725.913L728.869 716.051H760.099Z" fill="white"/>
<path d="M724.829 716.051L721.504 706.101H691.266L693.598 716.051H724.829Z" fill="white"/>
<path d="M689.438 716.051L686.744 706.101H656.506L658.207 716.051H689.438Z" fill="white"/>
<path d="M654.125 716.051L652.062 706.101H621.824L622.894 716.051H654.125Z" fill="white"/>
<path d="M618.812 716.051L617.38 706.101H587.142L587.582 716.051H618.812Z" fill="white"/>
<path d="M583.598 716.051L582.783 706.101H552.545L552.368 716.051H583.598Z" fill="white"/>
<path d="M548.597 716.051L548.413 706.101H518.175L517.367 716.051H548.597Z" fill="white"/>
<path d="M513.376 716.051L513.823 706.101H483.585L482.146 716.051H513.376Z" fill="white"/>
<path d="M478.064 716.051L479.141 706.101H448.903L446.833 716.051H478.064Z" fill="white"/>
<path d="M442.751 716.051L444.452 706.101H414.214L411.521 716.051H442.751Z" fill="white"/>
<path d="M407.367 716.051L409.692 706.101H379.454L376.137 716.051H407.367Z" fill="white"/>
<path d="M372.089 716.051L375.052 706.101H344.815L340.866 716.051H372.089Z" fill="white"/>
<path d="M336.819 716.051H305.589L310.168 706.101H340.406L336.819 716.051Z" fill="white"/>
<path d="M769.753 733.68H801.919L797.205 723.428H766.06L769.753 733.68Z" fill="white"/>
<path d="M765.585 733.68L761.516 723.428H730.371L733.419 733.68H765.585Z" fill="white"/>
<path d="M729.252 733.68L725.835 723.428H694.69L697.086 733.68H729.252Z" fill="white"/>
<path d="M692.804 733.68L690.033 723.428H658.888L660.639 733.68H692.804Z" fill="white"/>
<path d="M656.435 733.68L654.309 723.428H623.164L624.27 733.68H656.435Z" fill="white"/>
<path d="M620.066 733.68L618.585 723.428H587.44L587.901 733.68H620.066Z" fill="white"/>
<path d="M583.79 733.68L582.953 723.428H551.815L551.624 733.68H583.79Z" fill="white"/>
<path d="M547.747 733.68L547.555 723.428H516.41L515.581 733.68H547.747Z" fill="white"/>
<path d="M511.47 733.68L511.93 723.428H480.785L479.304 733.68H511.47Z" fill="white"/>
<path d="M475.101 733.68L476.207 723.428H445.061L442.935 733.68H475.101Z" fill="white"/>
<path d="M438.732 733.68L440.483 723.428H409.337L406.566 733.68H438.732Z" fill="white"/>
<path d="M402.278 733.68L404.681 723.428H373.536L370.112 733.68H402.278Z" fill="white"/>
<path d="M365.951 733.68L368.992 723.428H337.854L333.786 733.68H365.951Z" fill="white"/>
<path d="M329.618 733.68H297.452L302.165 723.428H333.311L329.618 733.68Z" fill="white"/>
<path d="M777.557 751.654H810.835L805.959 741.051H773.736L777.557 751.654Z" fill="white"/>
<path d="M773.247 751.654L769.037 741.051H736.807L739.962 751.654H773.247Z" fill="white"/>
<path d="M735.652 751.654L732.108 741.051H699.886L702.366 751.654H735.652Z" fill="white"/>
<path d="M697.936 751.654L695.066 741.051H662.836L664.651 751.654H697.936Z" fill="white"/>
<path d="M660.299 751.654L658.094 741.051H625.872L627.013 751.654H660.299Z" fill="white"/>
<path d="M478.539 741.051H510.761H515.404H547.633H552.035H584.264H621.13L622.661 751.654H585.129H551.844H547.825H514.539H510.286H477L478.539 741.051Z" fill="white"/>
<path d="M472.656 751.654L473.797 741.051H441.567L439.37 751.654H472.656Z" fill="white"/>
<path d="M435.018 751.654L436.832 741.051H404.603L401.732 751.654H435.018Z" fill="white"/>
<path d="M397.302 751.654L399.783 741.051H367.553L364.016 751.654H397.302Z" fill="white"/>
<path d="M359.707 751.654L362.861 741.051H330.631L326.421 751.654H359.707Z" fill="white"/>
<path d="M322.111 751.654H288.826L293.702 741.051H325.932L322.111 751.654Z" fill="white"/>
<path opacity="0.5" d="M245.61 548.469C245.61 554.655 202.684 559.669 149.729 559.669C96.7738 559.669 53.8483 554.655 53.8483 548.469C53.8483 542.284 96.7738 537.27 149.729 537.27C202.684 537.27 245.61 542.284 245.61 548.469Z" fill="#FD9801"/>
<path d="M202.223 474.417C156.98 412.764 138.643 344.286 138.643 344.286L138.707 403.805C138.707 403.805 177.302 469.309 190.734 483.907C196.092 483.907 202.223 481.457 202.223 474.417Z" fill="#1A598C"/>
<path d="M120.597 493.821C120.597 493.821 183.986 465.228 212.763 472.305C241.541 479.381 305.043 545.847 305.043 545.847C305.851 553.139 301.166 558.175 293.291 561.91C293.291 561.91 241.059 530.236 208.978 499.015C208.978 499.015 153.953 529.288 123.631 519.611C120.696 518.67 112.871 502.183 120.597 493.821Z" fill="url(#paint27_linear_28_43)"/>
<path d="M292.71 561.803C292.71 561.803 293.256 563.771 295.892 565.919C298.529 568.067 307.85 575.208 307.85 575.208L343.51 530.143C343.51 530.143 336.713 524.353 328.505 527.054C320.29 529.755 316.972 541.472 304.526 545.136C304.519 545.129 304.767 549.023 292.71 561.803Z" fill="#E6E6E6"/>
<path d="M71.9088 359.969C93.1447 366.398 111.46 370.105 139.111 364.279C142.556 350.421 156.491 305.952 158.617 284.953C159.128 279.924 157.788 269.817 156.356 265.097C152.954 253.904 142.917 241.21 119.853 240.362C92.6414 239.364 77.4375 265.736 78.125 295.327C78.5219 312.784 73.3973 349.487 71.9088 359.969Z" fill="#131E30"/>
<path d="M121.178 327.475L119.98 334.293L118.626 342.001L117.464 348.661C113.594 350.881 109.1 350.299 105.23 348.891C100.02 347.008 95.909 343.646 95.909 343.646L95.9515 343.108L96.1571 340.586L97.5251 323.567L97.8015 319.997C99.8996 318.912 103.21 319.695 106.704 321.046C110.142 322.36 113.764 324.242 116.613 325.428C119.321 326.577 121.178 327.475 121.178 327.475Z" fill="#FAB08D"/>
<path d="M121.178 327.482L118.633 342.009C109.143 338.531 102.593 323.819 102.593 323.819L116.613 325.435C119.328 326.57 121.178 327.482 121.178 327.482Z" fill="#F28368"/>
<path d="M136.538 333.74C130.953 335.521 125.296 335.428 119.987 334.293C114.912 333.215 110.149 331.211 106.003 328.97C102.728 327.195 99.843 325.277 97.5181 323.574C95.6326 322.195 94.0945 320.938 93.0171 320.018C91.8547 319.012 91.2167 318.387 91.2167 318.387C91.2167 318.387 90.9828 314.731 91.0537 309.415C91.1317 303.768 91.5357 296.261 92.9037 289.307C94.5482 280.988 97.5606 273.473 103.033 270.916L111.971 271.002L154.315 271.397C154.315 271.397 154.372 272.043 154.435 273.2C154.577 275.729 154.776 280.707 154.627 286.785C154.62 287.245 154.606 287.697 154.584 288.172C154.06 305.054 150.735 329.235 136.538 333.74Z" fill="#FAB08D"/>
<path d="M96.0225 327.159C94.853 326.153 91.2168 318.394 91.2168 318.394C91.2168 318.394 90.99 314.738 91.0608 309.422L94.8671 311.584C94.8671 311.584 100.112 324.084 96.0225 327.159Z" fill="#131E30"/>
<path d="M99.9989 294.58C99.9989 294.58 94.7962 285.865 88.8777 290.657C82.3566 295.937 85.284 314.53 98.2907 314.422L99.9989 294.58Z" fill="#FAB08D"/>
<path d="M154.443 273.207C154.315 278.746 144.732 284.292 109.738 284.615C109.738 284.615 109.724 300.959 102.834 299.472C101.197 299.12 99.5807 289.766 92.9108 289.314C94.5481 281.002 97.5676 273.488 103.04 270.923L154.329 271.404C154.322 271.404 154.379 272.051 154.443 273.207Z" fill="#131E30"/>
<path d="M113.119 272.884C113.119 272.884 108.987 297.338 106.697 321.06C106.442 323.718 106.201 326.369 106.002 328.977C105.535 334.983 101.076 341.829 95.9444 343.122L97.5109 323.582C95.6184 322.202 94.0874 320.945 93.01 320.025C91.8404 319.02 91.2025 318.395 91.2025 318.395C91.2025 318.395 90.9757 314.738 91.0466 309.422C91.1174 303.782 91.5215 296.268 92.8966 289.321C94.5339 281.009 97.5534 273.495 103.025 270.93L111.971 271.009C112.956 271.9 113.119 272.884 113.119 272.884Z" fill="#131E30"/>
<path d="M68.5773 498.749C68.5773 498.749 147.737 491.938 177.082 495.969C206.427 499.992 276.365 559.446 276.365 559.446C277.91 566.616 273.763 572.119 266.314 576.652C266.314 576.652 211.133 550.617 176.033 522.923C176.033 522.923 115.359 554.533 83.7742 550.876C58.9304 548.002 61.9287 509.245 68.5773 498.749Z" fill="url(#paint28_linear_28_43)"/>
<path d="M265.718 576.609C265.718 576.609 266.456 578.506 269.305 580.366C272.147 582.227 282.142 588.348 282.142 588.348L313.017 539.791C313.017 539.791 305.667 534.741 297.778 538.29C289.882 541.839 287.777 553.843 275.769 558.786C275.769 558.793 276.414 562.636 265.718 576.609Z" fill="white"/>
<path d="M136.743 443.49C135.553 464.474 139.366 476.637 145.292 494.661C110.312 507.24 94.3142 512.09 65.3664 507.341C64.3457 490.099 61.4963 460.085 61.9924 442.01C63.4739 388.274 69.4916 353.776 69.4916 353.776L84.0506 348.072L98.9639 342.231L124.268 343.532L129.592 343.812L138.643 344.286C138.643 344.286 139.798 370.464 147.808 392.929C154.322 411.198 146.851 414.869 142.768 419.215C142.605 419.38 142.457 419.553 142.308 419.725C141.726 420.4 141.252 421.09 140.918 421.873C140.819 422.11 140.72 422.369 140.621 422.642C140.373 423.324 140.125 424.1 139.905 424.926C137.934 432.038 136.743 443.49 136.743 443.49Z" fill="#3788CC"/>
<path d="M142.775 419.215C142.612 419.38 142.464 419.553 142.315 419.725C141.734 420.4 141.259 421.09 140.925 421.873C140.826 422.11 140.727 422.369 140.628 422.642C134.298 425.436 120.873 430.171 102.82 430.171C102.005 430.171 101.183 430.164 100.346 430.142C99.7508 430.128 99.283 429.632 99.2971 429.029C99.3113 428.439 99.7933 427.972 100.367 427.972H100.396C123.028 428.511 139.061 421.104 142.775 419.215Z" fill="#3788CC"/>
<path d="M124.268 343.539C123.29 353.216 123.439 369.437 111.411 369.753C96.9509 370.134 87.2686 354.279 84.0506 348.079L98.971 342.239L124.268 343.539Z" fill="#FAB08D"/>
<path d="M175.381 481.73C156.81 471.241 117.131 447.829 117.131 447.829C117.131 447.829 94.9663 419.926 69.4917 353.783C69.4917 353.783 56.5913 365.457 64.126 400.716C71.6606 435.968 103.812 468.555 103.812 468.555C103.812 468.555 147.213 490.423 166.457 491.874L175.381 481.73Z" fill="#1A598C"/>
<path d="M255.483 490.94L121.816 504.497C121.058 504.576 120.377 504.008 120.299 503.239L119.541 495.574C119.463 494.805 120.016 494.116 120.781 494.037L254.448 480.48C255.207 480.401 255.887 480.962 255.965 481.738L256.724 489.403C256.795 490.179 256.242 490.861 255.483 490.94Z" fill="white"/>
<path d="M256.858 491.156L145.249 502.097L173.084 437.29L284.686 426.349L256.858 491.156Z" fill="url(#paint29_linear_28_43)"/>
<path d="M249.919 491.838L249.912 491.86L138.303 502.801L166.131 437.994L173.077 437.312L145.249 502.097L249.919 491.838Z" fill="white"/>
<path d="M223.488 463.361C223.878 467.341 221.014 470.889 217.087 471.285C213.16 471.68 209.659 468.777 209.269 464.797C208.879 460.817 211.743 457.269 215.663 456.873C219.589 456.478 223.091 459.381 223.488 463.361Z" fill="#A0A0A0"/>
<defs>
<linearGradient id="paint0_linear_28_43" x1="622.976" y1="329.777" x2="695.299" y2="329.777" gradientUnits="userSpaceOnUse">
<stop stop-color="#D5E4FF"/>
<stop offset="1" stop-color="#EDFFFE"/>
</linearGradient>
<linearGradient id="paint1_linear_28_43" x1="619.27" y1="305.434" x2="706.863" y2="305.434" gradientUnits="userSpaceOnUse">
<stop stop-color="#D5E4FF"/>
<stop offset="1" stop-color="#EDFFFE"/>
</linearGradient>
<linearGradient id="paint2_linear_28_43" x1="561.448" y1="20.3703" x2="557.265" y2="411.081" gradientUnits="userSpaceOnUse">
<stop stop-color="#19456C"/>
<stop offset="0.2486" stop-color="#183F63"/>
<stop offset="0.6605" stop-color="#162E49"/>
<stop offset="0.9944" stop-color="#131E30"/>
</linearGradient>
<linearGradient id="paint3_linear_28_43" x1="559.298" y1="60.0576" x2="559.298" y2="-0.491782" gradientUnits="userSpaceOnUse">
<stop stop-color="#D2D2D2"/>
<stop offset="0.3082" stop-color="#DBDBDB"/>
<stop offset="0.8191" stop-color="#F5F5F5"/>
<stop offset="0.9944" stop-color="white"/>
</linearGradient>
<linearGradient id="paint4_linear_28_43" x1="569.764" y1="184.721" x2="547.457" y2="505.228" gradientUnits="userSpaceOnUse">
<stop stop-color="#19456C"/>
<stop offset="0.2486" stop-color="#183F63"/>
<stop offset="0.6605" stop-color="#162E49"/>
<stop offset="0.9944" stop-color="#131E30"/>
</linearGradient>
<linearGradient id="paint5_linear_28_43" x1="559.176" y1="812.591" x2="559.176" y2="368.208" gradientUnits="userSpaceOnUse">
<stop stop-color="#D2D2D2"/>
<stop offset="0.3082" stop-color="#DBDBDB"/>
<stop offset="0.8191" stop-color="#F5F5F5"/>
<stop offset="0.9944" stop-color="white"/>
</linearGradient>
<linearGradient id="paint6_linear_28_43" x1="559.296" y1="524.422" x2="559.296" y2="446.978" gradientUnits="userSpaceOnUse">
<stop stop-color="#D2D2D2"/>
<stop offset="0.3082" stop-color="#DBDBDB"/>
<stop offset="0.8191" stop-color="#F5F5F5"/>
<stop offset="0.9944" stop-color="white"/>
</linearGradient>
<linearGradient id="paint7_linear_28_43" x1="559.185" y1="300.532" x2="559.185" y2="-51.2963" gradientUnits="userSpaceOnUse">
<stop stop-color="#19456C"/>
<stop offset="0.2486" stop-color="#183F63"/>
<stop offset="0.6605" stop-color="#162E49"/>
<stop offset="0.9944" stop-color="#131E30"/>
</linearGradient>
<linearGradient id="paint8_linear_28_43" x1="559.298" y1="412.824" x2="559.298" y2="612.066" gradientUnits="userSpaceOnUse">
<stop stop-color="#D2D2D2"/>
<stop offset="0.3082" stop-color="#DBDBDB"/>
<stop offset="0.8191" stop-color="#F5F5F5"/>
<stop offset="0.9944" stop-color="white"/>
</linearGradient>
<linearGradient id="paint9_linear_28_43" x1="558.177" y1="551.262" x2="549.811" y2="781.337" gradientUnits="userSpaceOnUse">
<stop stop-color="#D2D2D2"/>
<stop offset="0.3082" stop-color="#DBDBDB"/>
<stop offset="0.8191" stop-color="#F5F5F5"/>
<stop offset="0.9944" stop-color="white"/>
</linearGradient>
<linearGradient id="paint10_linear_28_43" x1="559.298" y1="652.316" x2="559.298" y2="588.938" gradientUnits="userSpaceOnUse">
<stop stop-color="#D2D2D2"/>
<stop offset="0.3082" stop-color="#DBDBDB"/>
<stop offset="0.8191" stop-color="#F5F5F5"/>
<stop offset="0.9944" stop-color="white"/>
</linearGradient>
<linearGradient id="paint11_linear_28_43" x1="559.174" y1="-15.8479" x2="559.174" y2="294.483" gradientUnits="userSpaceOnUse">
<stop stop-color="#19456C"/>
<stop offset="0.2486" stop-color="#183F63"/>
<stop offset="0.6605" stop-color="#162E49"/>
<stop offset="0.9944" stop-color="#131E30"/>
</linearGradient>
<linearGradient id="paint12_linear_28_43" x1="560.222" y1="330.983" x2="553.562" y2="165.613" gradientUnits="userSpaceOnUse">
<stop stop-color="#19456C"/>
<stop offset="0.2486" stop-color="#183F63"/>
<stop offset="0.6605" stop-color="#162E49"/>
<stop offset="0.9944" stop-color="#131E30"/>
</linearGradient>
<linearGradient id="paint13_linear_28_43" x1="555.806" y1="146.487" x2="562.926" y2="282.991" gradientUnits="userSpaceOnUse">
<stop stop-color="#19456C"/>
<stop offset="0.2486" stop-color="#183F63"/>
<stop offset="0.6605" stop-color="#162E49"/>
<stop offset="0.9944" stop-color="#131E30"/>
</linearGradient>
<linearGradient id="paint14_linear_28_43" x1="555.401" y1="125.06" x2="557.991" y2="163.024" gradientUnits="userSpaceOnUse">
<stop stop-color="#19456C"/>
<stop offset="0.2486" stop-color="#183F63"/>
<stop offset="0.6605" stop-color="#162E49"/>
<stop offset="0.9944" stop-color="#131E30"/>
</linearGradient>
<linearGradient id="paint15_linear_28_43" x1="832.385" y1="659.16" x2="854.817" y2="348.347" gradientUnits="userSpaceOnUse">
<stop stop-color="#19456C"/>
<stop offset="0.2486" stop-color="#183F63"/>
<stop offset="0.6605" stop-color="#162E49"/>
<stop offset="0.9944" stop-color="#131E30"/>
</linearGradient>
<linearGradient id="paint16_linear_28_43" x1="809.307" y1="657.496" x2="831.74" y2="346.697" gradientUnits="userSpaceOnUse">
<stop stop-color="#19456C"/>
<stop offset="0.2486" stop-color="#183F63"/>
<stop offset="0.6605" stop-color="#162E49"/>
<stop offset="0.9944" stop-color="#131E30"/>
</linearGradient>
<linearGradient id="paint17_linear_28_43" x1="879.466" y1="411.992" x2="811.378" y2="715.887" gradientUnits="userSpaceOnUse">
<stop stop-color="#19456C"/>
<stop offset="0.2486" stop-color="#183F63"/>
<stop offset="0.6605" stop-color="#162E49"/>
<stop offset="0.9944" stop-color="#131E30"/>
</linearGradient>
<linearGradient id="paint18_linear_28_43" x1="902.051" y1="417.054" x2="833.965" y2="720.944" gradientUnits="userSpaceOnUse">
<stop stop-color="#19456C"/>
<stop offset="0.2486" stop-color="#183F63"/>
<stop offset="0.6605" stop-color="#162E49"/>
<stop offset="0.9944" stop-color="#131E30"/>
</linearGradient>
<linearGradient id="paint19_linear_28_43" x1="934.273" y1="423.772" x2="823.473" y2="714.475" gradientUnits="userSpaceOnUse">
<stop stop-color="#19456C"/>
<stop offset="0.2486" stop-color="#183F63"/>
<stop offset="0.6605" stop-color="#162E49"/>
<stop offset="0.9944" stop-color="#131E30"/>
</linearGradient>
<linearGradient id="paint20_linear_28_43" x1="955.921" y1="432.025" x2="845.123" y2="722.722" gradientUnits="userSpaceOnUse">
<stop stop-color="#19456C"/>
<stop offset="0.2486" stop-color="#183F63"/>
<stop offset="0.6605" stop-color="#162E49"/>
<stop offset="0.9944" stop-color="#131E30"/>
</linearGradient>
<linearGradient id="paint21_linear_28_43" x1="1009.74" y1="898.279" x2="941.179" y2="359.015" gradientUnits="userSpaceOnUse">
<stop stop-color="#19456C"/>
<stop offset="0.2486" stop-color="#183F63"/>
<stop offset="0.6605" stop-color="#162E49"/>
<stop offset="0.9944" stop-color="#131E30"/>
</linearGradient>
<linearGradient id="paint22_linear_28_43" x1="998.733" y1="379.946" x2="1073.62" y2="872.1" gradientUnits="userSpaceOnUse">
<stop stop-color="#19456C"/>
<stop offset="0.2486" stop-color="#183F63"/>
<stop offset="0.6605" stop-color="#162E49"/>
<stop offset="0.9944" stop-color="#131E30"/>
</linearGradient>
<linearGradient id="paint23_linear_28_43" x1="895.997" y1="373.756" x2="856.407" y2="255.757" gradientUnits="userSpaceOnUse">
<stop stop-color="#D2D2D2"/>
<stop offset="0.3082" stop-color="#DBDBDB"/>
<stop offset="0.8191" stop-color="#F5F5F5"/>
<stop offset="0.9944" stop-color="white"/>
</linearGradient>
<linearGradient id="paint24_linear_28_43" x1="882.292" y1="735.292" x2="891.568" y2="660.616" gradientUnits="userSpaceOnUse">
<stop stop-color="#D2D2D2"/>
<stop offset="0.3082" stop-color="#DBDBDB"/>
<stop offset="0.8191" stop-color="#F5F5F5"/>
<stop offset="0.9944" stop-color="white"/>
</linearGradient>
<linearGradient id="paint25_linear_28_43" x1="856.643" y1="732.107" x2="865.919" y2="657.43" gradientUnits="userSpaceOnUse">
<stop stop-color="#D2D2D2"/>
<stop offset="0.3082" stop-color="#DBDBDB"/>
<stop offset="0.8191" stop-color="#F5F5F5"/>
<stop offset="0.9944" stop-color="white"/>
</linearGradient>
<linearGradient id="paint26_linear_28_43" x1="549.748" y1="782.074" x2="549.748" y2="642.517" gradientUnits="userSpaceOnUse">
<stop stop-color="#D2D2D2"/>
<stop offset="0.3082" stop-color="#DBDBDB"/>
<stop offset="0.8191" stop-color="#F5F5F5"/>
<stop offset="0.9944" stop-color="white"/>
</linearGradient>
<linearGradient id="paint27_linear_28_43" x1="1042.36" y1="340.649" x2="141.246" y2="533.612" gradientUnits="userSpaceOnUse">
<stop stop-color="#19456C"/>
<stop offset="0.2486" stop-color="#183F63"/>
<stop offset="0.6605" stop-color="#162E49"/>
<stop offset="0.9944" stop-color="#131E30"/>
</linearGradient>
<linearGradient id="paint28_linear_28_43" x1="260.662" y1="535.843" x2="-23.0607" y2="534.928" gradientUnits="userSpaceOnUse">
<stop stop-color="#19456C"/>
<stop offset="0.2486" stop-color="#183F63"/>
<stop offset="0.6605" stop-color="#162E49"/>
<stop offset="0.9944" stop-color="#131E30"/>
</linearGradient>
<linearGradient id="paint29_linear_28_43" x1="217.044" y1="497.29" x2="207.74" y2="352.876" gradientUnits="userSpaceOnUse">
<stop stop-color="#D2D2D2"/>
<stop offset="0.3082" stop-color="#DBDBDB"/>
<stop offset="0.8191" stop-color="#F5F5F5"/>
<stop offset="0.9944" stop-color="white"/>
</linearGradient>
</defs>
</svg>
